<mxfile host="app.diagrams.net" agent="Mozilla/5.0 (Windows NT 10.0; Win64; x64) AppleWebKit/537.36 (KHTML, like Gecko) Chrome/135.0.0.0 Safari/537.36" version="26.2.14">
  <diagram name="Page-1" id="YdZPWX6zhzggZ8WbIkYd">
    <mxGraphModel dx="1251" dy="660" grid="1" gridSize="10" guides="1" tooltips="1" connect="1" arrows="1" fold="1" page="1" pageScale="1" pageWidth="850" pageHeight="1100" math="0" shadow="0">
      <root>
        <mxCell id="0" />
        <mxCell id="1" parent="0" />
        <mxCell id="DFTxZPBPlK0BsI7brEbF-4" style="edgeStyle=orthogonalEdgeStyle;rounded=0;orthogonalLoop=1;jettySize=auto;html=1;entryX=0;entryY=0.5;entryDx=0;entryDy=0;" edge="1" parent="1" source="DFTxZPBPlK0BsI7brEbF-1" target="DFTxZPBPlK0BsI7brEbF-3">
          <mxGeometry relative="1" as="geometry" />
        </mxCell>
        <mxCell id="DFTxZPBPlK0BsI7brEbF-1" value="&lt;b&gt;Browser&lt;/b&gt;" style="rounded=1;whiteSpace=wrap;html=1;fillColor=#dae8fc;gradientColor=#7ea6e0;strokeColor=#6c8ebf;" vertex="1" parent="1">
          <mxGeometry x="10" y="120" width="120" height="60" as="geometry" />
        </mxCell>
        <mxCell id="DFTxZPBPlK0BsI7brEbF-2" value="&lt;b&gt;facebook.com&lt;/b&gt;" style="text;html=1;align=center;verticalAlign=middle;resizable=0;points=[];autosize=1;strokeColor=none;fillColor=none;" vertex="1" parent="1">
          <mxGeometry x="20" y="90" width="100" height="30" as="geometry" />
        </mxCell>
        <mxCell id="DFTxZPBPlK0BsI7brEbF-7" style="edgeStyle=orthogonalEdgeStyle;rounded=0;orthogonalLoop=1;jettySize=auto;html=1;entryX=0;entryY=0.5;entryDx=0;entryDy=0;" edge="1" parent="1" source="DFTxZPBPlK0BsI7brEbF-3" target="DFTxZPBPlK0BsI7brEbF-5">
          <mxGeometry relative="1" as="geometry" />
        </mxCell>
        <mxCell id="DFTxZPBPlK0BsI7brEbF-3" value="&lt;b&gt;Browser Cache&lt;/b&gt;" style="ellipse;whiteSpace=wrap;html=1;fillColor=#f5f5f5;gradientColor=#b3b3b3;strokeColor=#666666;" vertex="1" parent="1">
          <mxGeometry x="190" y="110" width="120" height="80" as="geometry" />
        </mxCell>
        <mxCell id="DFTxZPBPlK0BsI7brEbF-8" style="edgeStyle=orthogonalEdgeStyle;rounded=0;orthogonalLoop=1;jettySize=auto;html=1;entryX=0;entryY=0.5;entryDx=0;entryDy=0;" edge="1" parent="1" source="DFTxZPBPlK0BsI7brEbF-5" target="DFTxZPBPlK0BsI7brEbF-6">
          <mxGeometry relative="1" as="geometry" />
        </mxCell>
        <mxCell id="DFTxZPBPlK0BsI7brEbF-5" value="&lt;b&gt;OS&lt;/b&gt;" style="rounded=1;whiteSpace=wrap;html=1;fillColor=#f8cecc;gradientColor=#ea6b66;strokeColor=#b85450;" vertex="1" parent="1">
          <mxGeometry x="360" y="120" width="120" height="60" as="geometry" />
        </mxCell>
        <mxCell id="DFTxZPBPlK0BsI7brEbF-10" style="edgeStyle=orthogonalEdgeStyle;rounded=0;orthogonalLoop=1;jettySize=auto;html=1;entryX=0;entryY=0.5;entryDx=0;entryDy=0;" edge="1" parent="1" source="DFTxZPBPlK0BsI7brEbF-6" target="DFTxZPBPlK0BsI7brEbF-9">
          <mxGeometry relative="1" as="geometry" />
        </mxCell>
        <mxCell id="DFTxZPBPlK0BsI7brEbF-6" value="&lt;b&gt;OS Cache&lt;/b&gt;" style="ellipse;whiteSpace=wrap;html=1;fillColor=#f5f5f5;gradientColor=#b3b3b3;strokeColor=#666666;" vertex="1" parent="1">
          <mxGeometry x="520" y="110" width="120" height="80" as="geometry" />
        </mxCell>
        <mxCell id="DFTxZPBPlK0BsI7brEbF-12" style="edgeStyle=orthogonalEdgeStyle;rounded=0;orthogonalLoop=1;jettySize=auto;html=1;entryX=0.5;entryY=0;entryDx=0;entryDy=0;" edge="1" parent="1" source="DFTxZPBPlK0BsI7brEbF-9" target="DFTxZPBPlK0BsI7brEbF-11">
          <mxGeometry relative="1" as="geometry" />
        </mxCell>
        <mxCell id="DFTxZPBPlK0BsI7brEbF-9" value="&lt;b&gt;DNS Resolver&lt;/b&gt;" style="rounded=1;whiteSpace=wrap;html=1;fillColor=#fff2cc;gradientColor=#ffd966;strokeColor=#d6b656;" vertex="1" parent="1">
          <mxGeometry x="680" y="120" width="120" height="60" as="geometry" />
        </mxCell>
        <mxCell id="DFTxZPBPlK0BsI7brEbF-14" style="edgeStyle=orthogonalEdgeStyle;rounded=0;orthogonalLoop=1;jettySize=auto;html=1;" edge="1" parent="1" source="DFTxZPBPlK0BsI7brEbF-11" target="DFTxZPBPlK0BsI7brEbF-13">
          <mxGeometry relative="1" as="geometry" />
        </mxCell>
        <mxCell id="DFTxZPBPlK0BsI7brEbF-11" value="&lt;b&gt;Root Servers&lt;/b&gt;" style="rounded=1;whiteSpace=wrap;html=1;fillColor=#fff2cc;gradientColor=#ffd966;strokeColor=#d6b656;" vertex="1" parent="1">
          <mxGeometry x="680" y="250" width="120" height="60" as="geometry" />
        </mxCell>
        <mxCell id="DFTxZPBPlK0BsI7brEbF-16" style="edgeStyle=orthogonalEdgeStyle;rounded=0;orthogonalLoop=1;jettySize=auto;html=1;entryX=1;entryY=0.5;entryDx=0;entryDy=0;" edge="1" parent="1" source="DFTxZPBPlK0BsI7brEbF-13" target="DFTxZPBPlK0BsI7brEbF-15">
          <mxGeometry relative="1" as="geometry" />
        </mxCell>
        <mxCell id="DFTxZPBPlK0BsI7brEbF-13" value="&lt;b&gt;TLD info&lt;/b&gt;" style="rounded=1;whiteSpace=wrap;html=1;fillColor=#f8cecc;gradientColor=#ea6b66;strokeColor=#b85450;" vertex="1" parent="1">
          <mxGeometry x="490" y="250" width="120" height="60" as="geometry" />
        </mxCell>
        <mxCell id="DFTxZPBPlK0BsI7brEbF-18" style="edgeStyle=orthogonalEdgeStyle;rounded=0;orthogonalLoop=1;jettySize=auto;html=1;entryX=1;entryY=0.5;entryDx=0;entryDy=0;" edge="1" parent="1" source="DFTxZPBPlK0BsI7brEbF-15" target="DFTxZPBPlK0BsI7brEbF-17">
          <mxGeometry relative="1" as="geometry" />
        </mxCell>
        <mxCell id="DFTxZPBPlK0BsI7brEbF-15" value="&lt;b&gt;NameServers&lt;/b&gt;" style="rounded=1;whiteSpace=wrap;html=1;fillColor=#d5e8d4;gradientColor=#97d077;strokeColor=#82b366;" vertex="1" parent="1">
          <mxGeometry x="310" y="250" width="120" height="60" as="geometry" />
        </mxCell>
        <mxCell id="DFTxZPBPlK0BsI7brEbF-17" value="&lt;b&gt;IP Address&lt;/b&gt;" style="rounded=1;whiteSpace=wrap;html=1;fillColor=#dae8fc;gradientColor=#7ea6e0;strokeColor=#6c8ebf;" vertex="1" parent="1">
          <mxGeometry x="130" y="250" width="120" height="60" as="geometry" />
        </mxCell>
      </root>
    </mxGraphModel>
  </diagram>
</mxfile>
